<svg width="33" height="20" fill="none" xmlns="http://www.w3.org/2000/svg"><path d="M20.962 2.139h-8.923V17.86h8.923V2.14z" fill="#FF5F00"/><path d="M12.605 10c0-3.194 1.53-6.028 3.88-7.861A10.261 10.261 0 0010.197 0C4.56 0 0 4.472 0 10s4.56 10 10.197 10c2.38 0 4.56-.806 6.288-2.139A9.916 9.916 0 0112.605 10z" fill="#EB001B"/><path d="M33 10c0 5.528-4.561 10-10.198 10-2.38 0-4.56-.806-6.288-2.139 2.379-1.833 3.88-4.667 3.88-7.861s-1.53-6.028-3.88-7.861A10.261 10.261 0 0122.802 0c5.637 0 10.197 4.5 10.197 10z" fill="#F79E1B"/></svg>