<svg width="49" height="16" fill="none" xmlns="http://www.w3.org/2000/svg"><g clip-path="url(#clip0_17496:108855)"><path d="M21.233 15.77h-3.97L19.747.28h3.97l-2.483 15.49zM35.622.66a9.706 9.706 0 00-3.56-.66c-3.92 0-6.68 2.109-6.697 5.124-.033 2.225 1.976 3.46 3.478 4.202 1.536.758 2.058 1.253 2.058 1.928-.016 1.038-1.24 1.516-2.384 1.516-1.584 0-2.434-.246-3.724-.824l-.523-.247-.555 3.477c.93.428 2.646.807 4.427.824 4.165 0 6.876-2.076 6.908-5.29.016-1.763-1.045-3.114-3.332-4.218-1.388-.708-2.238-1.186-2.238-1.911.016-.66.719-1.335 2.286-1.335a6.693 6.693 0 012.957.593l.359.165.54-3.345zm5.277 9.622c.327-.89 1.585-4.333 1.585-4.333-.017.033.326-.907.522-1.483l.277 1.334s.752 3.708.915 4.482H40.9zm4.9-10.001h-3.07c-.947 0-1.667.28-2.075 1.285l-5.896 14.203h4.165l.833-2.323h5.096c.114.543.474 2.323.474 2.323H49L45.799.281zM13.948.28l-3.887 10.562L9.636 8.7c-.718-2.47-2.972-5.157-5.488-6.492L7.71 15.753h4.197L18.146.28h-4.198z" fill="#00579F"/><path d="M6.452.28H.065L0 .595C4.982 1.879 8.281 4.977 9.637 8.7L8.248 1.583C8.02.593 7.318.313 6.452.28z" fill="#F4A622"/></g><defs><clipPath id="clip0_17496:108855"><path fill="#fff" d="M0 0h49v16H0z"/></clipPath></defs></svg>