<svg width="17" height="17" fill="none" xmlns="http://www.w3.org/2000/svg"><g clip-path="url(#clip0)" stroke="#E6704B" stroke-width="2" stroke-linecap="round" stroke-linejoin="round"><path d="M7.162 1.833H4.495c-.736 0-1.333.597-1.333 1.334v2.666c0 .737.597 1.334 1.333 1.334h2.667c.736 0 1.333-.597 1.333-1.334V3.167c0-.737-.597-1.334-1.333-1.334zm0 8H4.495c-.736 0-1.333.597-1.333 1.334v2.666c0 .737.597 1.334 1.333 1.334h2.667c.736 0 1.333-.597 1.333-1.334v-2.666c0-.737-.597-1.334-1.333-1.334zm7.334 1.333h-4m2.667 2.667h-2.667m2.667-8h-2.667m4-2.667h-4"/></g><defs><clipPath id="clip0"><path fill="#fff" transform="translate(.828 .5)" d="M0 0h16v16H0z"/></clipPath></defs></svg>